<svg xmlns:xlink="http://www.w3.org/1999/xlink" xmlns="http://www.w3.org/2000/svg" version="1.1" viewBox="0 0 100 100" height="100px" width="100px">
        <desc>Created with Sketch.</desc>
        <defs>
           <linearGradient id="linearGradient-1" y2="115.484477%" x2="116.039609%" y1="0%" x1="34.9523037%">
              <stop offset="0%" stop-color="#1700FF"></stop>
              <stop offset="100%" stop-color="#B10EF1"></stop>
           </linearGradient>
           <rect rx="8.99999976" height="67.2008596" width="67.2578578" y="5.46149939" x="19.8783454" id="path-2"></rect>
           <filter id="filter-3" filterUnits="objectBoundingBox" height="162.5%" width="162.4%" y="-28.3%" x="-35.7%">
              <feOffset result="shadowOffsetOuter1" in="SourceAlpha" dy="2" dx="-3"></feOffset>
              <feGaussianBlur result="shadowBlurOuter1" in="shadowOffsetOuter1" stdDeviation="6.5"></feGaussianBlur>
              <feColorMatrix in="shadowBlurOuter1" type="matrix" values="0 0 0 0 0.0296505968   0 0 0 0 0.0172602666   0 0 0 0 0.100446429  0 0 0 0.423177083 0"></feColorMatrix>
           </filter>
           <linearGradient id="linearGradient-4" y2="112.548614%" x2="115.291753%" y1="0%" x1="0%">
              <stop offset="0%" stop-color="#1700FF"></stop>
              <stop offset="83.2001616%" stop-color="#9E0CF3"></stop>
              <stop offset="100%" stop-color="#B10EF1"></stop>
           </linearGradient>
           <path id="path-5" d="M40.2086259,6.21042694 C39.2480415,5.24152695 38.1027468,4.75708888 36.7727039,4.75708888 C35.4426658,4.75708888 34.3096854,5.24152695 33.3737297,6.21042694 L16.3049725,23.7622477 L12.0193093,19.3649757 C11.0833536,18.3960804 9.9503732,17.9116376 8.62033507,17.9116376 C7.29029269,17.9116376 6.14499751,18.3960804 5.1844131,19.3649757 C4.24845898,20.3338709 3.78048896,21.5077058 3.78048896,22.8865186 C3.78048896,24.2653314 4.24845898,25.4391663 5.1844131,26.4080615 L12.8690505,34.3082476 C13.8296349,35.2771428 14.9749296,35.7615833 16.3049725,35.7615833 C17.6350106,35.7615833 18.767991,35.2771428 19.7039467,34.3082476 L40.2086259,13.2535128 C41.1445816,12.2597758 41.61255,11.0797257 41.61255,9.71333379 C41.61255,8.34694665 41.1445816,7.17932216 40.2086259,6.21042694 Z"></path>
           <filter id="filter-6" filterUnits="objectBoundingBox" height="225.8%" width="203.1%" y="-62.9%" x="-51.5%">
              <feOffset result="shadowOffsetOuter1" in="SourceAlpha" dy="0" dx="0"></feOffset>
              <feGaussianBlur result="shadowBlurOuter1" in="shadowOffsetOuter1" stdDeviation="6.5"></feGaussianBlur>
              <feColorMatrix in="shadowBlurOuter1" type="matrix" values="0 0 0 0 1   0 0 0 0 1   0 0 0 0 1  0 0 0 0.588937953 0"></feColorMatrix>
           </filter>
        </defs>
        <g fill-rule="evenodd" fill="none" stroke-width="1" stroke="none" id="Page-1">
           <g transform="translate(-214.000000, -272.000000)" id="Artboard-2">
              <g transform="translate(201.000000, 269.000000)" id="Group-4">
                 <g transform="translate(58.787474, 58.534712) rotate(-6.000000) translate(-58.787474, -58.534712) translate(5.642436, 5.434712)" id="Group-3">
                    <g transform="translate(52.899385, 53.035097) rotate(7.000000) translate(-52.899385, -53.035097) translate(5.609309, 5.785097)" id="Group-2">
                       <path transform="translate(47.257139, 48.082832) scale(-1, -1) rotate(-25.000000) translate(-47.257139, -48.082832)" fill="url(#linearGradient-1)" id="Rectangle" d="M20.0219734,15.1240886 L74.1829282,14.1930575 C79.1527566,14.1076258 83.2508546,18.0672116 83.3362864,23.03704 C83.3371726,23.0885978 83.3376158,23.1401624 83.3376158,23.1917278 L83.3376158,72.0429044 C83.3376158,76.9531616 79.4018358,80.9571794 74.4923039,81.0415747 L20.3313491,81.9726057 C15.3615207,82.0580374 11.2634227,78.0984516 11.1779909,73.1286232 C11.1771047,73.0770654 11.1766615,73.0255009 11.1766615,72.9739354 L11.1766615,24.1227589 C11.1766615,19.2125016 15.1124415,15.2084838 20.0219734,15.1240886 Z"></path>
                       <g transform="translate(53.507274, 39.061929) rotate(-10.000000) translate(-53.507274, -39.061929)" id="Rectangle">
                          <use xlink:href="#path-2" filter="url(#filter-3)" fill-opacity="1" fill="black"></use>
                          <use xlink:href="#path-2" fill-rule="evenodd" fill="#FBFBFB"></use>
                       </g>
                    </g>
                 </g>
                 <g transform="translate(43.000000, 26.000000)" id="Group-5">
                    <path transform="translate(23.597283, 24.611262) rotate(-16.000000) translate(-23.597283, -24.611262)" opacity="0.3" fill="url(#linearGradient-4)" id="Page-1" d="M41.1093892,10.5623533 C40.1488048,9.59345333 39.0035101,9.10901526 37.6734673,9.10901526 C36.3434291,9.10901526 35.2104488,9.59345333 34.274493,10.5623533 L17.2057358,28.1141741 L12.9200727,23.716902 C11.9841169,22.7480068 10.8511366,22.263564 9.52109843,22.263564 C8.19105605,22.263564 7.04576086,22.7480068 6.08517646,23.716902 C5.14922234,24.6857973 4.68125232,25.8596322 4.68125232,27.238445 C4.68125232,28.6172578 5.14922234,29.7910927 6.08517646,30.7599879 L13.7698139,38.660174 C14.7303983,39.6290692 15.875693,40.1135096 17.2057358,40.1135096 C18.535774,40.1135096 19.6687543,39.6290692 20.6047101,38.660174 L41.1093892,17.6054392 C42.045345,16.6117022 42.5133134,15.4316521 42.5133134,14.0652602 C42.5133134,12.698873 42.045345,11.5312485 41.1093892,10.5623533 Z"></path>
                    <path transform="translate(24.498046, 28.311262) rotate(-16.000000) translate(-24.498046, -28.311262)" opacity="0.2" fill="url(#linearGradient-4)" id="Page-1" d="M42.0101526,14.2623533 C41.0495682,13.2934533 39.9042735,12.8090153 38.5742306,12.8090153 C37.2441925,12.8090153 36.1112121,13.2934533 35.1752564,14.2623533 L18.1064992,31.8141741 L13.820836,27.416902 C12.8848803,26.4480068 11.7518999,25.963564 10.4218618,25.963564 C9.09181941,25.963564 7.94652422,26.4480068 6.98593982,27.416902 C6.78271177,27.6272827 6.60154798,27.8473258 6.4424483,28.0770317 C5.8688243,28.9052219 5.58201568,29.8590202 5.58201568,30.938445 C5.58201568,32.3172578 6.04998569,33.4910927 6.98593982,34.4599879 L14.6705772,42.360174 C15.6311616,43.3290692 16.7764563,43.8135096 18.1064992,43.8135096 C19.4365373,43.8135096 20.5695177,43.3290692 21.5054734,42.360174 L42.0101526,21.3054392 C42.9461083,20.3117022 43.4140767,19.1316521 43.4140767,17.7652602 C43.4140767,16.398873 42.9461083,15.2312485 42.0101526,14.2623533 Z"></path>
                    <g transform="translate(22.696519, 20.259336) rotate(-16.000000) translate(-22.696519, -20.259336)" id="Page-1">
                       <use xlink:href="#path-5" filter="url(#filter-6)" fill-opacity="1" fill="black"></use>
                       <use xlink:href="#path-5" fill-rule="evenodd" fill="url(#linearGradient-4)"></use>
                    </g>
                 </g>
              </g>
           </g>
        </g>
     </svg>